<svg width="16" height="16" viewBox="0 0 16 16" fill="none" xmlns="http://www.w3.org/2000/svg">
<path d="M4 13C4 13 3 13 3 12V4C3 3 4 3 4 3H5V1H4C4 1 1 1 1 3.96875V12.0312C1 12.0312 1 15 3.96875 15C4 15 4 13 4 13ZM11 7C11.5547 7 12 6.55469 12 6V2C12 1.44531 11.5547 1 11 1H7C6.44531 1 6 1.44531 6 2V6C6 6.55469 6.44531 7 7 7H11ZM11 6H9V2H11V6Z" fill="#222222"/>
<path d="M13 14.8345C13.8662 14.5667 15 13.8659 15 12.0313V4C15 4 15 3.5 14.6875 3.28125L13 1.59375C13 6.00733 13 10.4209 13 14.8345Z" fill="#222222"/>
<rect x="4" y="9" width="2" height="2" fill="#222222"/>
<rect x="7" y="9" width="2" height="2" fill="#222222"/>
<rect x="10" y="9" width="2" height="2" fill="#222222"/>
<rect x="5" y="13" width="1" height="2" fill="#222222"/>
<rect x="7" y="13" width="1" height="2" fill="#222222"/>
<rect x="9" y="13" width="1" height="2" fill="#222222"/>
<rect x="11" y="13" width="1" height="2" fill="#222222"/>
</svg>
