<svg width="16" height="16" viewBox="0 0 16 16" fill="none" xmlns="http://www.w3.org/2000/svg">
<path d="M3 15V4C3 3 4 3 4 3H5V1H4C4 1 0.999999 1 0.999999 3.96875V13.0312C0.999999 14 2 15 3 15ZM11 6C11.5547 6 12 5.55469 12 5C12 3.33333 12 2.66667 12 1H6C6 2.66667 6 3.33333 6 5C6 5.55469 6.44531 6 7 6H11ZM11 5H9V2H11V5Z" fill="#222222"/>
<path d="M15 4V13.0313C15 14 14 15 13 15L12 15V13H13V2C13.624 2.47379 15 4 15 4Z" fill="#222222"/>
<rect x="4" y="10" width="2" height="2" fill="#222222"/>
<rect x="7" y="10" width="2" height="2" fill="#222222"/>
<rect x="10" y="10" width="2" height="2" fill="#222222"/>
<rect x="6" y="13" width="1" height="2" fill="#222222"/>
<rect x="4" y="13" width="1" height="2" fill="#222222"/>
<rect x="8" y="13" width="1" height="2" fill="#222222"/>
<rect x="10" y="13" width="1" height="2" fill="#222222"/>
<rect x="3" y="8" width="10" height="1" fill="#222222"/>
</svg>
