<svg width="128" height="128" viewBox="0 0 128 128" fill="none" xmlns="http://www.w3.org/2000/svg">
<path d="M108 46H20C15.5817 46 12 49.5817 12 54V108C12 112.418 15.5817 116 20 116H108C112.418 116 116 112.418 116 108V54C116 49.5817 112.418 46 108 46Z" fill="url(#paint0_linear_5_422)"/>
<path d="M108 112C112.418 112 116 108.418 116 104L116 25.3137C116 23.192 115.157 21.1571 113.657 19.6568L108.343 14.3431C106.843 12.8429 104.808 12 102.686 12L20 12C15.5817 12 12 15.5817 12 20L12 104C12 108.418 15.5817 112 20 112L108 112Z" fill="#2EC27E"/>
<g filter="url(#filter0_ii_5_422)">
<path d="M97 116L97 105C97 104.448 97.4477 104 98 104L102 104C102.552 104 103 104.448 103 105L103 116L97 116Z" fill="#F9F06B"/>
</g>
<g filter="url(#filter1_ii_5_422)">
<path d="M87 116L87 105C87 104.448 87.4477 104 88 104L92 104C92.5523 104 93 104.448 93 105L93 116L87 116Z" fill="#F9F06B"/>
</g>
<g filter="url(#filter2_ii_5_422)">
<path d="M77 116L77 105C77 104.448 77.4477 104 78 104L82 104C82.5523 104 83 104.448 83 105L83 116L77 116Z" fill="#F9F06B"/>
</g>
<g filter="url(#filter3_ii_5_422)">
<path d="M67 116L67 105C67 104.448 67.4477 104 68 104L72 104C72.5523 104 73 104.448 73 105L73 116L67 116Z" fill="#F9F06B"/>
</g>
<g filter="url(#filter4_ii_5_422)">
<path d="M57 116L57 105C57 104.448 57.4477 104 58 104L62 104C62.5523 104 63 104.448 63 105L63 116L57 116Z" fill="#F9F06B"/>
</g>
<g filter="url(#filter5_ii_5_422)">
<path d="M47 116L47 105C47 104.448 47.4477 104 48 104L52 104C52.5523 104 53 104.448 53 105L53 116L47 116Z" fill="#F9F06B"/>
</g>
<g filter="url(#filter6_ii_5_422)">
<path d="M37 116L37 105C37 104.448 37.4477 104 38 104L42 104C42.5523 104 43 104.448 43 105L43 116L37 116Z" fill="#F9F06B"/>
</g>
<g filter="url(#filter7_ii_5_422)">
<path d="M27 116L27 105C27 104.448 27.4477 104 28 104L32 104C32.5523 104 33 104.448 33 105L33 116L27 116Z" fill="#F9F06B"/>
</g>
<g filter="url(#filter8_d_5_422)">
<rect x="82" y="94" width="20" height="20" rx="3" transform="rotate(-90 82 94)" fill="url(#paint1_linear_5_422)"/>
</g>
<g filter="url(#filter9_d_5_422)">
<rect x="54" y="94" width="20" height="20" rx="3" transform="rotate(-90 54 94)" fill="url(#paint2_linear_5_422)"/>
</g>
<g filter="url(#filter10_d_5_422)">
<rect x="26" y="94" width="20" height="20" rx="3" transform="rotate(-90 26 94)" fill="url(#paint3_linear_5_422)"/>
</g>
<g filter="url(#filter11_d_5_422)">
<path d="M47 48C45.3431 48 44 46.6569 44 45L44 15C44 13.3431 45.3431 12 47 12L95 12C96.6569 12 98 13.3431 98 15L98 45C98 46.6569 96.6569 48 95 48L47 48Z" fill="url(#paint4_linear_5_422)"/>
</g>
<g filter="url(#filter12_i_5_422)">
<path d="M80 44C78.8954 44 78 43.1046 78 42L78 16L92 16L92 42C92 43.1046 91.1046 44 90 44L80 44Z" fill="#2EC27E"/>
</g>
<path d="M30 25.5C32.5 25.5 34.5 27.4624 34.5 30.5C34.5 33.5 32.5 35.5 30 35.5M30 33.5C31.1111 33.5 32.5 32.3 32.5 30.5C32.5 28.6775 31.1111 27.5 30 27.5" stroke="#26A269"/>
<path d="M22.5 36L22.5 25M24.5 36L24.5 31.5L26.5 31.5L26.5 36M26.5 25L26.5 29.5L24.5 29.5L24.5 25M28.5 25L28.5 36" stroke="#26A269"/>
<path d="M12 61H116" stroke="#28AB6F" stroke-width="2"/>
<path d="M12 63H116" stroke="#33D17A" stroke-width="2"/>
<defs>
<filter id="filter0_ii_5_422" x="97" y="104" width="6" height="12" filterUnits="userSpaceOnUse" color-interpolation-filters="sRGB">
<feFlood flood-opacity="0" result="BackgroundImageFix"/>
<feBlend mode="normal" in="SourceGraphic" in2="BackgroundImageFix" result="shape"/>
<feColorMatrix in="SourceAlpha" type="matrix" values="0 0 0 0 0 0 0 0 0 0 0 0 0 0 0 0 0 0 127 0" result="hardAlpha"/>
<feOffset dy="2"/>
<feComposite in2="hardAlpha" operator="arithmetic" k2="-1" k3="1"/>
<feColorMatrix type="matrix" values="0 0 0 0 0 0 0 0 0 0 0 0 0 0 0 0 0 0 0.1 0"/>
<feBlend mode="normal" in2="shape" result="effect1_innerShadow_5_422"/>
<feColorMatrix in="SourceAlpha" type="matrix" values="0 0 0 0 0 0 0 0 0 0 0 0 0 0 0 0 0 0 127 0" result="hardAlpha"/>
<feOffset dy="-2"/>
<feComposite in2="hardAlpha" operator="arithmetic" k2="-1" k3="1"/>
<feColorMatrix type="matrix" values="0 0 0 0 0 0 0 0 0 0 0 0 0 0 0 0 0 0 0.1 0"/>
<feBlend mode="normal" in2="effect1_innerShadow_5_422" result="effect2_innerShadow_5_422"/>
</filter>
<filter id="filter1_ii_5_422" x="87" y="104" width="6" height="12" filterUnits="userSpaceOnUse" color-interpolation-filters="sRGB">
<feFlood flood-opacity="0" result="BackgroundImageFix"/>
<feBlend mode="normal" in="SourceGraphic" in2="BackgroundImageFix" result="shape"/>
<feColorMatrix in="SourceAlpha" type="matrix" values="0 0 0 0 0 0 0 0 0 0 0 0 0 0 0 0 0 0 127 0" result="hardAlpha"/>
<feOffset dy="2"/>
<feComposite in2="hardAlpha" operator="arithmetic" k2="-1" k3="1"/>
<feColorMatrix type="matrix" values="0 0 0 0 0 0 0 0 0 0 0 0 0 0 0 0 0 0 0.1 0"/>
<feBlend mode="normal" in2="shape" result="effect1_innerShadow_5_422"/>
<feColorMatrix in="SourceAlpha" type="matrix" values="0 0 0 0 0 0 0 0 0 0 0 0 0 0 0 0 0 0 127 0" result="hardAlpha"/>
<feOffset dy="-2"/>
<feComposite in2="hardAlpha" operator="arithmetic" k2="-1" k3="1"/>
<feColorMatrix type="matrix" values="0 0 0 0 0 0 0 0 0 0 0 0 0 0 0 0 0 0 0.1 0"/>
<feBlend mode="normal" in2="effect1_innerShadow_5_422" result="effect2_innerShadow_5_422"/>
</filter>
<filter id="filter2_ii_5_422" x="77" y="104" width="6" height="12" filterUnits="userSpaceOnUse" color-interpolation-filters="sRGB">
<feFlood flood-opacity="0" result="BackgroundImageFix"/>
<feBlend mode="normal" in="SourceGraphic" in2="BackgroundImageFix" result="shape"/>
<feColorMatrix in="SourceAlpha" type="matrix" values="0 0 0 0 0 0 0 0 0 0 0 0 0 0 0 0 0 0 127 0" result="hardAlpha"/>
<feOffset dy="2"/>
<feComposite in2="hardAlpha" operator="arithmetic" k2="-1" k3="1"/>
<feColorMatrix type="matrix" values="0 0 0 0 0 0 0 0 0 0 0 0 0 0 0 0 0 0 0.1 0"/>
<feBlend mode="normal" in2="shape" result="effect1_innerShadow_5_422"/>
<feColorMatrix in="SourceAlpha" type="matrix" values="0 0 0 0 0 0 0 0 0 0 0 0 0 0 0 0 0 0 127 0" result="hardAlpha"/>
<feOffset dy="-2"/>
<feComposite in2="hardAlpha" operator="arithmetic" k2="-1" k3="1"/>
<feColorMatrix type="matrix" values="0 0 0 0 0 0 0 0 0 0 0 0 0 0 0 0 0 0 0.1 0"/>
<feBlend mode="normal" in2="effect1_innerShadow_5_422" result="effect2_innerShadow_5_422"/>
</filter>
<filter id="filter3_ii_5_422" x="67" y="104" width="6" height="12" filterUnits="userSpaceOnUse" color-interpolation-filters="sRGB">
<feFlood flood-opacity="0" result="BackgroundImageFix"/>
<feBlend mode="normal" in="SourceGraphic" in2="BackgroundImageFix" result="shape"/>
<feColorMatrix in="SourceAlpha" type="matrix" values="0 0 0 0 0 0 0 0 0 0 0 0 0 0 0 0 0 0 127 0" result="hardAlpha"/>
<feOffset dy="2"/>
<feComposite in2="hardAlpha" operator="arithmetic" k2="-1" k3="1"/>
<feColorMatrix type="matrix" values="0 0 0 0 0 0 0 0 0 0 0 0 0 0 0 0 0 0 0.1 0"/>
<feBlend mode="normal" in2="shape" result="effect1_innerShadow_5_422"/>
<feColorMatrix in="SourceAlpha" type="matrix" values="0 0 0 0 0 0 0 0 0 0 0 0 0 0 0 0 0 0 127 0" result="hardAlpha"/>
<feOffset dy="-2"/>
<feComposite in2="hardAlpha" operator="arithmetic" k2="-1" k3="1"/>
<feColorMatrix type="matrix" values="0 0 0 0 0 0 0 0 0 0 0 0 0 0 0 0 0 0 0.1 0"/>
<feBlend mode="normal" in2="effect1_innerShadow_5_422" result="effect2_innerShadow_5_422"/>
</filter>
<filter id="filter4_ii_5_422" x="57" y="104" width="6" height="12" filterUnits="userSpaceOnUse" color-interpolation-filters="sRGB">
<feFlood flood-opacity="0" result="BackgroundImageFix"/>
<feBlend mode="normal" in="SourceGraphic" in2="BackgroundImageFix" result="shape"/>
<feColorMatrix in="SourceAlpha" type="matrix" values="0 0 0 0 0 0 0 0 0 0 0 0 0 0 0 0 0 0 127 0" result="hardAlpha"/>
<feOffset dy="2"/>
<feComposite in2="hardAlpha" operator="arithmetic" k2="-1" k3="1"/>
<feColorMatrix type="matrix" values="0 0 0 0 0 0 0 0 0 0 0 0 0 0 0 0 0 0 0.1 0"/>
<feBlend mode="normal" in2="shape" result="effect1_innerShadow_5_422"/>
<feColorMatrix in="SourceAlpha" type="matrix" values="0 0 0 0 0 0 0 0 0 0 0 0 0 0 0 0 0 0 127 0" result="hardAlpha"/>
<feOffset dy="-2"/>
<feComposite in2="hardAlpha" operator="arithmetic" k2="-1" k3="1"/>
<feColorMatrix type="matrix" values="0 0 0 0 0 0 0 0 0 0 0 0 0 0 0 0 0 0 0.1 0"/>
<feBlend mode="normal" in2="effect1_innerShadow_5_422" result="effect2_innerShadow_5_422"/>
</filter>
<filter id="filter5_ii_5_422" x="47" y="104" width="6" height="12" filterUnits="userSpaceOnUse" color-interpolation-filters="sRGB">
<feFlood flood-opacity="0" result="BackgroundImageFix"/>
<feBlend mode="normal" in="SourceGraphic" in2="BackgroundImageFix" result="shape"/>
<feColorMatrix in="SourceAlpha" type="matrix" values="0 0 0 0 0 0 0 0 0 0 0 0 0 0 0 0 0 0 127 0" result="hardAlpha"/>
<feOffset dy="2"/>
<feComposite in2="hardAlpha" operator="arithmetic" k2="-1" k3="1"/>
<feColorMatrix type="matrix" values="0 0 0 0 0 0 0 0 0 0 0 0 0 0 0 0 0 0 0.1 0"/>
<feBlend mode="normal" in2="shape" result="effect1_innerShadow_5_422"/>
<feColorMatrix in="SourceAlpha" type="matrix" values="0 0 0 0 0 0 0 0 0 0 0 0 0 0 0 0 0 0 127 0" result="hardAlpha"/>
<feOffset dy="-2"/>
<feComposite in2="hardAlpha" operator="arithmetic" k2="-1" k3="1"/>
<feColorMatrix type="matrix" values="0 0 0 0 0 0 0 0 0 0 0 0 0 0 0 0 0 0 0.1 0"/>
<feBlend mode="normal" in2="effect1_innerShadow_5_422" result="effect2_innerShadow_5_422"/>
</filter>
<filter id="filter6_ii_5_422" x="37" y="104" width="6" height="12" filterUnits="userSpaceOnUse" color-interpolation-filters="sRGB">
<feFlood flood-opacity="0" result="BackgroundImageFix"/>
<feBlend mode="normal" in="SourceGraphic" in2="BackgroundImageFix" result="shape"/>
<feColorMatrix in="SourceAlpha" type="matrix" values="0 0 0 0 0 0 0 0 0 0 0 0 0 0 0 0 0 0 127 0" result="hardAlpha"/>
<feOffset dy="2"/>
<feComposite in2="hardAlpha" operator="arithmetic" k2="-1" k3="1"/>
<feColorMatrix type="matrix" values="0 0 0 0 0 0 0 0 0 0 0 0 0 0 0 0 0 0 0.1 0"/>
<feBlend mode="normal" in2="shape" result="effect1_innerShadow_5_422"/>
<feColorMatrix in="SourceAlpha" type="matrix" values="0 0 0 0 0 0 0 0 0 0 0 0 0 0 0 0 0 0 127 0" result="hardAlpha"/>
<feOffset dy="-2"/>
<feComposite in2="hardAlpha" operator="arithmetic" k2="-1" k3="1"/>
<feColorMatrix type="matrix" values="0 0 0 0 0 0 0 0 0 0 0 0 0 0 0 0 0 0 0.1 0"/>
<feBlend mode="normal" in2="effect1_innerShadow_5_422" result="effect2_innerShadow_5_422"/>
</filter>
<filter id="filter7_ii_5_422" x="27" y="104" width="6" height="12" filterUnits="userSpaceOnUse" color-interpolation-filters="sRGB">
<feFlood flood-opacity="0" result="BackgroundImageFix"/>
<feBlend mode="normal" in="SourceGraphic" in2="BackgroundImageFix" result="shape"/>
<feColorMatrix in="SourceAlpha" type="matrix" values="0 0 0 0 0 0 0 0 0 0 0 0 0 0 0 0 0 0 127 0" result="hardAlpha"/>
<feOffset dy="2"/>
<feComposite in2="hardAlpha" operator="arithmetic" k2="-1" k3="1"/>
<feColorMatrix type="matrix" values="0 0 0 0 0 0 0 0 0 0 0 0 0 0 0 0 0 0 0.1 0"/>
<feBlend mode="normal" in2="shape" result="effect1_innerShadow_5_422"/>
<feColorMatrix in="SourceAlpha" type="matrix" values="0 0 0 0 0 0 0 0 0 0 0 0 0 0 0 0 0 0 127 0" result="hardAlpha"/>
<feOffset dy="-2"/>
<feComposite in2="hardAlpha" operator="arithmetic" k2="-1" k3="1"/>
<feColorMatrix type="matrix" values="0 0 0 0 0 0 0 0 0 0 0 0 0 0 0 0 0 0 0.1 0"/>
<feBlend mode="normal" in2="effect1_innerShadow_5_422" result="effect2_innerShadow_5_422"/>
</filter>
<filter id="filter8_d_5_422" x="82" y="74" width="20" height="22" filterUnits="userSpaceOnUse" color-interpolation-filters="sRGB">
<feFlood flood-opacity="0" result="BackgroundImageFix"/>
<feColorMatrix in="SourceAlpha" type="matrix" values="0 0 0 0 0 0 0 0 0 0 0 0 0 0 0 0 0 0 127 0" result="hardAlpha"/>
<feOffset dy="2"/>
<feComposite in2="hardAlpha" operator="out"/>
<feColorMatrix type="matrix" values="0 0 0 0 0 0 0 0 0 0 0 0 0 0 0 0 0 0 0.12 0"/>
<feBlend mode="normal" in2="BackgroundImageFix" result="effect1_dropShadow_5_422"/>
<feBlend mode="normal" in="SourceGraphic" in2="effect1_dropShadow_5_422" result="shape"/>
</filter>
<filter id="filter9_d_5_422" x="54" y="74" width="20" height="22" filterUnits="userSpaceOnUse" color-interpolation-filters="sRGB">
<feFlood flood-opacity="0" result="BackgroundImageFix"/>
<feColorMatrix in="SourceAlpha" type="matrix" values="0 0 0 0 0 0 0 0 0 0 0 0 0 0 0 0 0 0 127 0" result="hardAlpha"/>
<feOffset dy="2"/>
<feComposite in2="hardAlpha" operator="out"/>
<feColorMatrix type="matrix" values="0 0 0 0 0 0 0 0 0 0 0 0 0 0 0 0 0 0 0.12 0"/>
<feBlend mode="normal" in2="BackgroundImageFix" result="effect1_dropShadow_5_422"/>
<feBlend mode="normal" in="SourceGraphic" in2="effect1_dropShadow_5_422" result="shape"/>
</filter>
<filter id="filter10_d_5_422" x="26" y="74" width="20" height="22" filterUnits="userSpaceOnUse" color-interpolation-filters="sRGB">
<feFlood flood-opacity="0" result="BackgroundImageFix"/>
<feColorMatrix in="SourceAlpha" type="matrix" values="0 0 0 0 0 0 0 0 0 0 0 0 0 0 0 0 0 0 127 0" result="hardAlpha"/>
<feOffset dy="2"/>
<feComposite in2="hardAlpha" operator="out"/>
<feColorMatrix type="matrix" values="0 0 0 0 0 0 0 0 0 0 0 0 0 0 0 0 0 0 0.12 0"/>
<feBlend mode="normal" in2="BackgroundImageFix" result="effect1_dropShadow_5_422"/>
<feBlend mode="normal" in="SourceGraphic" in2="effect1_dropShadow_5_422" result="shape"/>
</filter>
<filter id="filter11_d_5_422" x="44" y="12" width="54" height="38" filterUnits="userSpaceOnUse" color-interpolation-filters="sRGB">
<feFlood flood-opacity="0" result="BackgroundImageFix"/>
<feColorMatrix in="SourceAlpha" type="matrix" values="0 0 0 0 0 0 0 0 0 0 0 0 0 0 0 0 0 0 127 0" result="hardAlpha"/>
<feOffset dy="2"/>
<feComposite in2="hardAlpha" operator="out"/>
<feColorMatrix type="matrix" values="0 0 0 0 0 0 0 0 0 0 0 0 0 0 0 0 0 0 0.12 0"/>
<feBlend mode="normal" in2="BackgroundImageFix" result="effect1_dropShadow_5_422"/>
<feBlend mode="normal" in="SourceGraphic" in2="effect1_dropShadow_5_422" result="shape"/>
</filter>
<filter id="filter12_i_5_422" x="78" y="16" width="14" height="28" filterUnits="userSpaceOnUse" color-interpolation-filters="sRGB">
<feFlood flood-opacity="0" result="BackgroundImageFix"/>
<feBlend mode="normal" in="SourceGraphic" in2="BackgroundImageFix" result="shape"/>
<feColorMatrix in="SourceAlpha" type="matrix" values="0 0 0 0 0 0 0 0 0 0 0 0 0 0 0 0 0 0 127 0" result="hardAlpha"/>
<feOffset dy="2"/>
<feComposite in2="hardAlpha" operator="arithmetic" k2="-1" k3="1"/>
<feColorMatrix type="matrix" values="0 0 0 0 0 0 0 0 0 0 0 0 0 0 0 0 0 0 0.12 0"/>
<feBlend mode="normal" in2="shape" result="effect1_innerShadow_5_422"/>
</filter>
<linearGradient id="paint0_linear_5_422" x1="12" y1="116" x2="116" y2="116" gradientUnits="userSpaceOnUse">
<stop stop-color="#26A269"/>
<stop offset="0.0384615" stop-color="#33D17A"/>
<stop offset="0.0768555" stop-color="#26A269"/>
<stop offset="0.923077" stop-color="#26A269"/>
<stop offset="0.961538" stop-color="#33D17A"/>
<stop offset="1" stop-color="#26A269"/>
</linearGradient>
<linearGradient id="paint1_linear_5_422" x1="102" y1="104" x2="82" y2="104" gradientUnits="userSpaceOnUse">
<stop stop-color="#5E5C64"/>
<stop offset="1" stop-color="#3D3846"/>
</linearGradient>
<linearGradient id="paint2_linear_5_422" x1="74" y1="104" x2="54" y2="104" gradientUnits="userSpaceOnUse">
<stop stop-color="#5E5C64"/>
<stop offset="1" stop-color="#3D3846"/>
</linearGradient>
<linearGradient id="paint3_linear_5_422" x1="46" y1="104" x2="26" y2="104" gradientUnits="userSpaceOnUse">
<stop stop-color="#5E5C64"/>
<stop offset="1" stop-color="#3D3846"/>
</linearGradient>
<linearGradient id="paint4_linear_5_422" x1="71" y1="12" x2="71" y2="48" gradientUnits="userSpaceOnUse">
<stop stop-color="#77767B"/>
<stop offset="1" stop-color="#5E5C64"/>
</linearGradient>
</defs>
</svg>
